ffmpeg started on 2016-12-04 at 22:52:11
Report written to "Output/x264/results/ffmpeg/sintelveryfast2500k.log"
Command line:
Tools/ffmpeg/ffmpeg -benchmark -y -i Input/y4m/sintel.y4m -c:v libx264 -preset veryfast -b:v 2500k -an Output/x264/encoded/sintelveryfast2500k.mkv
ffmpeg version N-82227-gdb23fde Copyright (c) 2000-2016 the FFmpeg developers
  built with gcc 5.4.0 (Ubuntu 5.4.0-6ubuntu1~16.04.2) 20160609
  configuration: --prefix=/home/jaroslav/ffmpeg_build --pkg-config-flags=--static --extra-cflags=-I/home/jaroslav/ffmpeg_build/include --extra-ldflags=-L/home/jaroslav/ffmpeg_build/lib --bindir=/home/jaroslav/bin --enable-gpl --enable-libass --enable-libfdk-aac --enable-libfreetype --enable-libmp3lame --enable-libopus --enable-libtheora --enable-libvorbis --enable-libvpx --enable-libx264 --enable-libx265 --enable-nvenc --enable-libmfx --enable-libxvid --enable-libgsm --enable-libopencore-amrnb --enable-version3 --enable-nonfree
  libavutil      55. 35.100 / 55. 35.100
  libavcodec     57. 66.101 / 57. 66.101
  libavformat    57. 57.100 / 57. 57.100
  libavdevice    57.  2.100 / 57.  2.100
  libavfilter     6. 66.100 /  6. 66.100
  libswscale      4.  3.100 /  4.  3.100
  libswresample   2.  4.100 /  2.  4.100
  libpostproc    54.  2.100 / 54.  2.100
Input #0, yuv4mpegpipe, from 'Input/y4m/sintel.y4m':
  Duration: 00:00:20.83, start: 0.000000, bitrate: 2057307 kb/s
    Stream #0:0: Video: rawvideo (I420 / 0x30323449), yuv420p(progressive), 4096x1744, SAR 1:1 DAR 256:109, 24 fps, 24 tbr, 24 tbn, 24 tbc
[libx264 @ 0x39bd1c0] using SAR=1/1
[libx264 @ 0x39bd1c0] using cpu capabilities: MMX2 SSE2Fast SSSE3 SSE4.2 AVX FMA3 AVX2 LZCNT BMI2
[libx264 @ 0x39bd1c0] profile High, level 5.1
[libx264 @ 0x39bd1c0] 264 - core 148 - H.264/MPEG-4 AVC codec - Copyleft 2003-2016 - http://www.videolan.org/x264.html - options: cabac=1 ref=1 deblock=1:0:0 analyse=0x3:0x113 me=hex subme=2 psy=1 psy_rd=1.00:0.00 mixed_ref=0 me_range=16 chroma_me=1 trellis=0 8x8dct=1 cqm=0 deadzone=21,11 fast_pskip=1 chroma_qp_offset=0 threads=6 lookahead_threads=2 sliced_threads=0 nr=0 decimate=1 interlaced=0 bluray_compat=0 constrained_intra=0 bframes=3 b_pyramid=2 b_adapt=1 b_bias=0 direct=1 weightb=1 open_gop=0 weightp=1 keyint=250 keyint_min=24 scenecut=40 intra_refresh=0 rc_lookahead=10 rc=abr mbtree=1 bitrate=2500 ratetol=1.0 qcomp=0.60 qpmin=0 qpmax=69 qpstep=4 ip_ratio=1.40 aq=1:1.00
Output #0, matroska, to 'Output/x264/encoded/sintelveryfast2500k.mkv':
  Metadata:
    encoder         : Lavf57.57.100
    Stream #0:0: Video: h264 (libx264) (H264 / 0x34363248), yuv420p, 4096x1744 [SAR 1:1 DAR 256:109], q=-1--1, 2500 kb/s, 24 fps, 1k tbn, 24 tbc
    Metadata:
      encoder         : Lavc57.66.101 libx264
    Side data:
      cpb: bitrate max/min/avg: 0/0/2500000 buffer size: 0 vbv_delay: -1
Stream mapping:
  Stream #0:0 -> #0:0 (rawvideo (native) -> h264 (libx264))
Press [q] to stop, [?] for help
frame=    2 fps=0.0 q=0.0 size=       0kB time=00:00:00.00 bitrate=N/A speed=   0x    frame=    3 fps=1.1 q=0.0 size=       0kB time=00:00:00.00 bitrate=N/A speed=   0x    frame=   10 fps=3.1 q=0.0 size=       0kB time=00:00:00.00 bitrate=N/A speed=   0x    frame=   17 fps=4.5 q=0.0 size=       0kB time=00:00:00.00 bitrate=N/A speed=   0x    frame=   26 fps=6.1 q=52.0 size=       1kB time=00:00:00.12 bitrate=  46.5kbits/s speed=0.0295x    frame=   33 fps=6.6 q=51.0 size=       1kB time=00:00:00.41 bitrate=  14.0kbits/s speed=0.0841x    frame=   38 fps=6.5 q=52.0 size=       1kB time=00:00:00.62 bitrate=   9.4kbits/s speed=0.108x    frame=   45 fps=7.1 q=52.0 size=       1kB time=00:00:00.91 bitrate=   6.4kbits/s speed=0.144x    frame=   52 fps=7.5 q=52.0 size=       1kB time=00:00:01.20 bitrate=   4.9kbits/s speed=0.175x    frame=   58 fps=7.8 q=52.0 size=       1kB time=00:00:01.45 bitrate=   4.0kbits/s speed=0.196x    frame=   73 fps=9.2 q=51.0 size=       1kB time=00:00:02.08 bitrate=   2.8kbits/s speed=0.262x    frame=   85 fps= 10 q=51.0 size=       1kB time=00:00:02.58 bitrate=   2.3kbits/s speed=0.304x    frame=   96 fps= 11 q=51.0 size=       1kB time=00:00:03.04 bitrate=   1.9kbits/s speed=0.339x    frame=  107 fps= 11 q=52.0 size=       1kB time=00:00:03.50 bitrate=   1.7kbits/s speed=0.369x    frame=  113 fps= 11 q=52.0 size=       1kB time=00:00:03.75 bitrate=   1.6kbits/s speed=0.371x    frame=  119 fps= 11 q=52.0 size=       1kB time=00:00:04.00 bitrate=   1.5kbits/s speed=0.377x    frame=  121 fps= 11 q=52.0 size=    1488kB time=00:00:04.08 bitrate=2984.3kbits/s speed=0.359x    frame=  124 fps= 10 q=51.0 size=    1488kB time=00:00:04.20 bitrate=2895.7kbits/s speed=0.347x    frame=  130 fps= 10 q=51.0 size=    1488kB time=00:00:04.45 bitrate=2733.3kbits/s speed=0.352x    frame=  144 fps= 11 q=51.0 size=    1488kB time=00:00:05.04 bitrate=2416.8kbits/s speed=0.383x    frame=  149 fps= 11 q=51.0 size=    1488kB time=00:00:05.25 bitrate=2321.1kbits/s speed=0.381x    frame=  158 fps= 11 q=51.0 size=    1488kB time=00:00:05.62 bitrate=2166.3kbits/s speed=0.385x    frame=  163 fps= 11 q=51.0 size=    1488kB time=00:00:05.83 bitrate=2089.1kbits/s speed=0.385x    frame=  171 fps= 11 q=51.0 size=    1488kB time=00:00:06.16 bitrate=1976.0kbits/s speed=0.393x    frame=  178 fps= 11 q=51.0 size=    2188kB time=00:00:06.45 bitrate=2775.3kbits/s speed=0.398x    frame=  183 fps= 11 q=51.0 size=    2188kB time=00:00:06.66 bitrate=2688.3kbits/s speed=0.393x    frame=  190 fps= 11 q=51.0 size=    2188kB time=00:00:06.95 bitrate=2575.9kbits/s speed=0.397x    frame=  195 fps= 11 q=51.0 size=    2188kB time=00:00:07.16 bitrate=2500.8kbits/s speed=0.397x    frame=  199 fps= 11 q=48.0 size=    2188kB time=00:00:07.33 bitrate=2444.2kbits/s speed=0.389x    frame=  204 fps= 11 q=51.0 size=    2468kB time=00:00:07.54 bitrate=2680.1kbits/s speed=0.389x    frame=  211 fps= 10 q=50.0 size=    2468kB time=00:00:07.83 bitrate=2580.6kbits/s speed=0.388x    frame=  218 fps= 11 q=50.0 size=    2468kB time=00:00:08.12 bitrate=2487.8kbits/s speed=0.392x    frame=  219 fps= 10 q=50.0 size=    2468kB time=00:00:08.16 bitrate=2475.0kbits/s speed=0.383x    frame=  222 fps= 10 q=50.0 size=    2468kB time=00:00:08.29 bitrate=2437.7kbits/s speed=0.379x    frame=  231 fps= 10 q=50.0 size=    2468kB time=00:00:08.66 bitrate=2332.3kbits/s speed=0.386x    frame=  238 fps= 10 q=50.0 size=    2468kB time=00:00:08.95 bitrate=2256.5kbits/s speed=0.39x    frame=  240 fps= 10 q=50.0 size=    2468kB time=00:00:09.04 bitrate=2235.5kbits/s speed=0.382x    frame=  249 fps= 10 q=50.0 size=    2468kB time=00:00:09.41 bitrate=2146.5kbits/s speed=0.387x    frame=  256 fps= 10 q=49.0 size=    2468kB time=00:00:09.70 bitrate=2082.2kbits/s speed=0.391x    frame=  269 fps= 11 q=49.0 size=    2468kB time=00:00:10.25 bitrate=1972.1kbits/s speed=0.404x    frame=  275 fps= 11 q=49.0 size=    2468kB time=00:00:10.50 bitrate=1925.2kbits/s speed=0.402x    frame=  280 fps= 10 q=49.0 size=    2468kB time=00:00:10.70 bitrate=1887.8kbits/s speed=0.397x    frame=  286 fps= 10 q=48.0 size=    3172kB time=00:00:10.95 bitrate=2371.2kbits/s speed=0.394x    frame=  289 fps= 10 q=48.0 size=    3172kB time=00:00:11.08 bitrate=2344.5kbits/s speed=0.389x    frame=  296 fps= 10 q=48.0 size=    3172kB time=00:00:11.37 bitrate=2284.3kbits/s speed=0.392x    frame=  298 fps= 10 q=48.0 size=    3172kB time=00:00:11.45 bitrate=2267.8kbits/s speed=0.387x    frame=  303 fps= 10 q=48.0 size=    3172kB time=00:00:11.66 bitrate=2227.2kbits/s speed=0.386x    frame=  308 fps= 10 q=48.0 size=    3172kB time=00:00:11.87 bitrate=2188.2kbits/s speed=0.385x    frame=  314 fps= 10 q=47.0 size=    3172kB time=00:00:12.12 bitrate=2143.0kbits/s speed=0.385x    frame=  317 fps=9.9 q=47.0 size=    3172kB time=00:00:12.25 bitrate=2121.2kbits/s speed=0.381x    frame=  323 fps=9.9 q=47.0 size=    3172kB time=00:00:12.50 bitrate=2078.8kbits/s speed=0.382x    frame=  335 fps= 10 q=46.0 size=    3172kB time=00:00:13.00 bitrate=1998.8kbits/s speed=0.39x    frame=  353 fps= 10 q=45.0 size=    3172kB time=00:00:13.75 bitrate=1889.8kbits/s speed=0.406x    frame=  360 fps= 10 q=45.0 size=    3172kB time=00:00:14.04 bitrate=1850.5kbits/s speed=0.405x    frame=  367 fps= 10 q=44.0 size=    3172kB time=00:00:14.33 bitrate=1812.9kbits/s speed=0.407x    frame=  375 fps= 10 q=44.0 size=    3172kB time=00:00:14.66 bitrate=1771.6kbits/s speed=0.41x    frame=  379 fps= 10 q=44.0 size=    3172kB time=00:00:14.83 bitrate=1751.8kbits/s speed=0.404x    frame=  385 fps= 10 q=43.0 size=    3700kB time=00:00:15.08 bitrate=2009.4kbits/s speed=0.406x    frame=  388 fps= 10 q=43.0 size=    3700kB time=00:00:15.20 bitrate=1992.9kbits/s speed=0.401x    frame=  395 fps= 10 q=43.0 size=    3700kB time=00:00:15.50 bitrate=1955.4kbits/s speed= 0.4x    frame=  405 fps= 10 q=43.0 size=    3700kB time=00:00:15.91 bitrate=1904.1kbits/s speed=0.403x    frame=  412 fps= 10 q=43.0 size=    3700kB time=00:00:16.20 bitrate=1870.0kbits/s speed=0.405x    frame=  418 fps= 10 q=43.0 size=    3700kB time=00:00:16.45 bitrate=1841.6kbits/s speed=0.406x    frame=  422 fps= 10 q=43.0 size=    3700kB time=00:00:16.62 bitrate=1823.1kbits/s speed=0.403x    frame=  426 fps= 10 q=43.0 size=    3700kB time=00:00:16.79 bitrate=1804.9kbits/s speed=0.399x    frame=  433 fps= 10 q=42.0 size=    3700kB time=00:00:17.08 bitrate=1774.2kbits/s speed=0.401x    frame=  435 fps= 10 q=43.0 size=    3700kB time=00:00:17.16 bitrate=1765.5kbits/s speed=0.398x    frame=  441 fps= 10 q=43.0 size=    4279kB time=00:00:17.41 bitrate=2012.3kbits/s speed=0.399x    frame=  447 fps= 10 q=43.0 size=    4279kB time=00:00:17.66 bitrate=1983.8kbits/s speed= 0.4x    frame=  456 fps= 10 q=43.0 size=    4279kB time=00:00:18.04 bitrate=1942.6kbits/s speed=0.403x    frame=  464 fps= 10 q=42.0 size=    4279kB time=00:00:18.37 bitrate=1907.4kbits/s speed=0.405x    frame=  479 fps= 10 q=42.0 size=    4279kB time=00:00:19.00 bitrate=1844.6kbits/s speed=0.414x    frame=  494 fps= 11 q=41.0 size=    4279kB time=00:00:19.62 bitrate=1785.9kbits/s speed=0.423x    frame=  500 fps= 11 q=-1.0 Lsize=    5016kB time=00:00:20.70 bitrate=1984.1kbits/s speed=0.442x    
video:5011kB audio:0kB subtitle:0kB other streams:0kB global headers:0kB muxing overhead: 0.089040%
bench: utime=57.572s
bench: maxrss=932596kB
[libx264 @ 0x39bd1c0] frame I:8     Avg QP:37.97  size: 38933
[libx264 @ 0x39bd1c0] frame P:284   Avg QP:43.47  size: 13043
[libx264 @ 0x39bd1c0] frame B:208   Avg QP:40.69  size:  5361
[libx264 @ 0x39bd1c0] consecutive B-frames: 41.2%  8.0%  6.0% 44.8%
[libx264 @ 0x39bd1c0] mb I  I16..4: 51.9% 48.0%  0.2%
[libx264 @ 0x39bd1c0] mb P  I16..4: 14.2% 11.7%  0.0%  P16..4:  3.9%  0.6%  0.1%  0.0%  0.0%    skip:69.5%
[libx264 @ 0x39bd1c0] mb B  I16..4:  1.7%  1.3%  0.0%  B16..8:  4.9%  0.5%  0.0%  direct: 0.6%  skip:91.0%  L0:47.7% L1:50.9% BI: 1.4%
[libx264 @ 0x39bd1c0] final ratefactor: 40.67
[libx264 @ 0x39bd1c0] 8x8 transform intra:45.2% inter:67.3%
[libx264 @ 0x39bd1c0] coded y,uvDC,uvAC intra: 7.9% 14.3% 0.1% inter: 0.1% 1.0% 0.0%
[libx264 @ 0x39bd1c0] i16 v,h,dc,p: 58% 28%  9%  5%
[libx264 @ 0x39bd1c0] i8 v,h,dc,ddl,ddr,vr,hd,vl,hu:  8% 14% 71%  1%  1%  1%  1%  1%  2%
[libx264 @ 0x39bd1c0] i4 v,h,dc,ddl,ddr,vr,hd,vl,hu: 28% 26% 15%  5%  6%  5%  6%  5%  5%
[libx264 @ 0x39bd1c0] i8c dc,h,v,p: 92%  4%  4%  0%
[libx264 @ 0x39bd1c0] Weighted P-Frames: Y:0.4% UV:0.0%
[libx264 @ 0x39bd1c0] kb/s:1970.20
